<svg width="43" height="20" viewBox="0 0 43 20" fill="none" xmlns="http://www.w3.org/2000/svg">
<path fill-rule="evenodd" clip-rule="evenodd" d="M31.3517 0.475236C31.6563 0.170927 32.0694 0 32.5 0C32.9306 0 33.3436 0.170927 33.6483 0.475236L41.7733 8.60024C42.0776 8.90493 42.2486 9.31794 42.2486 9.74857C42.2486 10.1792 42.0776 10.5922 41.7733 10.8969L33.6483 19.0219C33.4996 19.1816 33.3202 19.3096 33.1208 19.3984C32.9215 19.4872 32.7063 19.535 32.4881 19.5388C32.2699 19.5427 32.0532 19.5026 31.8509 19.4208C31.6485 19.3391 31.4647 19.2175 31.3104 19.0632C31.1561 18.9088 31.0345 18.725 30.9527 18.5227C30.871 18.3204 30.8309 18.1036 30.8347 17.8854C30.8386 17.6672 30.8863 17.4521 30.9751 17.2527C31.064 17.0534 31.192 16.874 31.3517 16.7252L36.7033 11.3736H1.625C1.19402 11.3736 0.780698 11.2024 0.475951 10.8976C0.171205 10.5929 0 10.1795 0 9.74857C0 9.31759 0.171205 8.90427 0.475951 8.59952C0.780698 8.29478 1.19402 8.12357 1.625 8.12357H36.7033L31.3517 2.7719C31.0474 2.46721 30.8764 2.0542 30.8764 1.62357C30.8764 1.19294 31.0474 0.779925 31.3517 0.475236Z" fill="#FFC24D"/>
</svg>
