<svg width="40" height="40" viewBox="0 0 40 40" fill="none" xmlns="http://www.w3.org/2000/svg">
<rect width="40" height="40" rx="8" fill="#F8F8F8"/>
<g clip-path="url(#clip0_2084_18929)">
<path d="M13.2686 17.7499C13.2673 16.8605 13.4421 15.9795 13.7829 15.1579C14.1238 14.3363 14.6238 13.5903 15.2543 12.9628C15.8848 12.3353 16.6332 11.8389 17.4564 11.502C18.2797 11.1652 19.1615 10.9946 20.0509 11.0001C23.7625 11.0277 26.7312 14.1128 26.7312 17.8347V18.4999C26.7312 21.8577 27.4337 23.8061 28.0524 24.871C28.1191 24.9848 28.1546 25.1142 28.1553 25.246C28.156 25.3779 28.1219 25.5076 28.0565 25.6221C27.991 25.7366 27.8966 25.8318 27.7826 25.8982C27.6686 25.9645 27.5392 25.9996 27.4073 25.9999H12.5917C12.4598 25.9996 12.3304 25.9645 12.2164 25.8981C12.1024 25.8318 12.0079 25.7366 11.9425 25.622C11.8771 25.5075 11.843 25.3778 11.8438 25.2459C11.8445 25.114 11.88 24.9846 11.9467 24.8709C12.5657 23.8059 13.2685 21.8575 13.2685 18.4999L13.2686 17.7499Z" stroke="#000929" stroke-width="2" stroke-linecap="round" stroke-linejoin="round"/>
<path d="M17 26V26.75C17 27.5456 17.3161 28.3087 17.8787 28.8713C18.4413 29.4339 19.2044 29.75 20 29.75C20.7956 29.75 21.5587 29.4339 22.1213 28.8713C22.6839 28.3087 23 27.5456 23 26.75V26" stroke="#000929" stroke-width="2" stroke-linecap="round" stroke-linejoin="round"/>
<mask id="path-4-outside-1_2084_18929" maskUnits="userSpaceOnUse" x="20" y="10" width="10" height="10" fill="black">
<rect fill="white" x="20" y="10" width="10" height="10"/>
<path fill-rule="evenodd" clip-rule="evenodd" d="M28 15C28 16.6569 26.6569 18 25 18C23.3431 18 22 16.6569 22 15C22 13.3431 23.3431 12 25 12C26.6569 12 28 13.3431 28 15Z"/>
</mask>
<path fill-rule="evenodd" clip-rule="evenodd" d="M28 15C28 16.6569 26.6569 18 25 18C23.3431 18 22 16.6569 22 15C22 13.3431 23.3431 12 25 12C26.6569 12 28 13.3431 28 15Z" fill="#FFC24D"/>
<path d="M25 20C27.7614 20 30 17.7614 30 15H26C26 15.5523 25.5523 16 25 16V20ZM20 15C20 17.7614 22.2386 20 25 20V16C24.4477 16 24 15.5523 24 15H20ZM25 10C22.2386 10 20 12.2386 20 15H24C24 14.4477 24.4477 14 25 14V10ZM30 15C30 12.2386 27.7614 10 25 10V14C25.5523 14 26 14.4477 26 15H30Z" fill="#F8F8F8" mask="url(#path-4-outside-1_2084_18929)"/>
</g>
<defs>
<clipPath id="clip0_2084_18929">
<rect width="24" height="24" fill="white" transform="translate(8 8)"/>
</clipPath>
</defs>
</svg>
