<svg width="24" height="22" viewBox="0 0 24 22" fill="none" xmlns="http://www.w3.org/2000/svg">
<path d="M15.749 5.5C15.749 6.41168 15.3539 7.28602 14.6507 7.93068C13.9474 8.57534 12.9936 8.9375 11.999 8.9375C11.0044 8.9375 10.0506 8.57534 9.34735 7.93068C8.64409 7.28602 8.249 6.41168 8.249 5.5C8.249 4.58832 8.64409 3.71398 9.34735 3.06932C10.0506 2.42466 11.0044 2.0625 11.999 2.0625C12.9936 2.0625 13.9474 2.42466 14.6507 3.06932C15.3539 3.71398 15.749 4.58832 15.749 5.5V5.5ZM4.5 18.4415C4.53213 16.6378 5.33634 14.918 6.73918 13.6529C8.14202 12.3878 10.0311 11.6788 11.999 11.6788C13.9669 11.6788 15.856 12.3878 17.2588 13.6529C18.6617 14.918 19.4659 16.6378 19.498 18.4415C17.1454 19.4304 14.5871 19.9407 11.999 19.9375C9.323 19.9375 6.783 19.4022 4.5 18.4415Z" stroke="#858585" stroke-width="1.5" stroke-linecap="round" stroke-linejoin="round"/>
</svg>
