<svg width="1440" height="59" viewBox="0 0 1440 59" fill="none" xmlns="http://www.w3.org/2000/svg">
<rect x="1089.48" y="58.4727" width="58.4732" height="58.4732" transform="rotate(180 1089.48 58.4727)" fill="#FFC24D"/>
<rect width="58.4732" height="58.4732" transform="matrix(-1 0 0 1 1147.95 0)" fill="#FFC24D"/>
<path d="M1089.48 -0.000537872C1089.48 7.67827 1090.99 15.2819 1093.93 22.3762C1096.87 29.4705 1101.18 35.9165 1106.61 41.3463C1112.04 46.776 1118.48 51.0831 1125.58 54.0217C1132.67 56.9602 1140.27 58.4727 1147.95 58.4727L1147.95 -0.000537872H1089.48Z" fill="#FFC24D"/>
<rect width="58.4732" height="58.4732" transform="matrix(1 0 0 -1 1147.95 58.4727)" fill="#FFC24D"/>
<path d="M1206.42 -0.000537872C1206.42 7.67827 1204.91 15.2819 1201.97 22.3762C1199.03 29.4705 1194.72 35.9165 1189.29 41.3463C1183.86 46.776 1177.42 51.0831 1170.32 54.0217C1163.23 56.9602 1155.62 58.4727 1147.95 58.4727L1147.95 -0.000537872H1206.42Z" fill="#1D1F22"/>
<rect x="1206.42" width="58.4732" height="58.4732" fill="#FFC24D"/>
<rect x="1206.42" y="29.2363" width="58.4732" height="29.2366" fill="#FFC24D"/>
<path d="M1235.66 0C1251.81 0 1264.9 13.0897 1264.9 29.2366L1206.43 29.2366C1206.43 13.0897 1219.51 0 1235.66 0Z" fill="#FFC24D"/>
<rect width="58.4732" height="58.4732" transform="matrix(-1 0 0 1 1323.37 0)" fill="#FFC24D"/>
<rect width="58.4732" height="29.2366" transform="matrix(-1 0 0 1 1323.37 0)" fill="#1D1F22"/>
<path d="M1294.13 58.4727C1277.98 58.4727 1264.89 45.383 1264.89 29.2361L1323.36 29.2361C1323.36 45.383 1310.27 58.4727 1294.13 58.4727Z" fill="#1D1F22"/>
<rect x="1381.84" y="58.4727" width="58.4732" height="58.4732" transform="rotate(180 1381.84 58.4727)" fill="#FFC24D"/>
<path d="M1352.6 29.2363C1336.46 29.2363 1323.37 42.326 1323.37 58.4729L1381.84 58.4729C1381.84 42.326 1368.75 29.2363 1352.6 29.2363Z" fill="#FFC24D"/>
<rect width="58.4732" height="58.4732" transform="matrix(-1 0 0 1 1440.31 0)" fill="#FFC24D"/>
<rect x="680.477" y="58.4727" width="58.4732" height="58.4732" transform="rotate(180 680.477 58.4727)" fill="#1D1F22"/>
<rect width="58.4732" height="58.4732" transform="matrix(-1 0 0 1 738.945 0)" fill="#FFC24D"/>
<rect width="58.4732" height="58.4732" transform="matrix(1 0 0 -1 738.945 58.4727)" fill="#FFC24D"/>
<rect width="58.4732" height="29.2366" transform="matrix(1 0 0 -1 738.945 58.4727)" fill="#1D1F22"/>
<path d="M768.182 0C752.035 0 738.945 13.0897 738.945 29.2366L797.419 29.2366C797.419 13.0897 784.329 0 768.182 0Z" fill="#1D1F22"/>
<rect x="797.422" width="58.4732" height="58.4732" fill="#1D1F22"/>
<rect x="797.422" width="58.4732" height="29.2366" fill="#FFC24D"/>
<path d="M826.662 58.4727C842.809 58.4727 855.898 45.383 855.898 29.2361L797.425 29.2361C797.425 45.383 810.515 58.4727 826.662 58.4727Z" fill="#FFC24D"/>
<rect width="58.4732" height="58.4732" transform="matrix(-1 0 0 1 914.367 0)" fill="#FFC24D"/>
<rect x="972.844" y="58.4727" width="58.4732" height="58.4732" transform="rotate(180 972.844 58.4727)" fill="#1D1F22"/>
<rect width="58.4732" height="58.4732" transform="matrix(-1 0 0 1 1031.32 0)" fill="#FFC24D"/>
<rect width="58.4732" height="29.2366" transform="matrix(-1 0 0 1 1031.32 0)" fill="#1D1F22"/>
<path d="M1002.08 58.4727C985.933 58.4727 972.844 45.383 972.844 29.2361L1031.32 29.2361C1031.32 45.383 1018.23 58.4727 1002.08 58.4727Z" fill="#1D1F22"/>
<rect x="271.477" y="58.4727" width="58.4732" height="58.4732" transform="rotate(180 271.477 58.4727)" fill="#1D1F22"/>
<rect width="58.4732" height="58.4732" transform="matrix(-1 0 0 1 329.945 0)" fill="#FFC24D"/>
<rect width="58.4732" height="58.4732" transform="matrix(1 0 0 -1 329.945 58.4727)" fill="#FFC24D"/>
<rect width="58.4732" height="29.2366" transform="matrix(1 0 0 -1 329.945 58.4727)" fill="#1D1F22"/>
<path d="M359.182 0C343.035 0 329.945 13.0897 329.945 29.2366L388.419 29.2366C388.419 13.0897 375.329 0 359.182 0Z" fill="#1D1F22"/>
<rect x="388.422" width="58.4732" height="58.4732" fill="#1D1F22"/>
<rect x="388.422" width="58.4732" height="29.2366" fill="#FFC24D"/>
<path d="M417.662 58.4727C433.809 58.4727 446.898 45.383 446.898 29.2361L388.425 29.2361C388.425 45.383 401.515 58.4727 417.662 58.4727Z" fill="#FFC24D"/>
<rect width="58.4732" height="58.4732" transform="matrix(-1 0 0 1 505.367 0)" fill="#FFC24D"/>
<rect x="563.844" y="58.4727" width="58.4732" height="58.4732" transform="rotate(180 563.844 58.4727)" fill="#1D1F22"/>
<rect width="58.4732" height="58.4732" transform="matrix(-1 0 0 1 622.32 0)" fill="#FFC24D"/>
<rect width="58.4732" height="29.2366" transform="matrix(-1 0 0 1 622.32 0)" fill="#1D1F22"/>
<path d="M593.08 58.4727C576.933 58.4727 563.844 45.383 563.844 29.2361L622.317 29.2361C622.317 45.383 609.227 58.4727 593.08 58.4727Z" fill="#1D1F22"/>
<rect x="-10.5781" width="58.4732" height="58.4732" fill="#1D1F22"/>
<rect x="-10.5781" width="58.4732" height="29.2366" fill="#FFC24D"/>
<path d="M18.6618 58.4727C34.8088 58.4727 47.8984 45.383 47.8984 29.2361L-10.5748 29.2361C-10.5748 45.383 2.51492 58.4727 18.6618 58.4727Z" fill="#FFC24D"/>
<rect width="58.4732" height="58.4732" transform="matrix(-1 0 0 1 106.367 0)" fill="#FFC24D"/>
<rect x="164.844" y="58.4727" width="58.4732" height="58.4732" transform="rotate(180 164.844 58.4727)" fill="#1D1F22"/>
<rect width="58.4732" height="58.4732" transform="matrix(-1 0 0 1 223.32 0)" fill="#FFC24D"/>
<rect width="58.4732" height="29.2366" transform="matrix(-1 0 0 1 223.32 0)" fill="#1D1F22"/>
<path d="M194.08 58.4727C177.933 58.4727 164.844 45.383 164.844 29.2361L223.317 29.2361C223.317 45.383 210.227 58.4727 194.08 58.4727Z" fill="#1D1F22"/>
</svg>
