<svg width="1440" height="59" viewBox="0 0 1440 59" fill="none" xmlns="http://www.w3.org/2000/svg">
<rect x="1113.48" y="58.4727" width="58.4732" height="58.4732" transform="rotate(180 1113.48 58.4727)" fill="#FFC24D"/>
<rect width="58.4732" height="58.4732" transform="matrix(-1 0 0 1 1171.95 0)" fill="#FFC24D"/>
<path d="M1113.48 -0.000537872C1113.48 7.67827 1114.99 15.2819 1117.93 22.3762C1120.87 29.4705 1125.18 35.9165 1130.61 41.3463C1136.04 46.776 1142.48 51.0831 1149.58 54.0217C1156.67 56.9602 1164.27 58.4727 1171.95 58.4727L1171.95 -0.000537872H1113.48Z" fill="#FFC24D"/>
<rect width="58.4732" height="58.4732" transform="matrix(1 0 0 -1 1171.95 58.4727)" fill="#FFC24D"/>
<path d="M1230.42 -0.000537872C1230.42 7.67827 1228.91 15.2819 1225.97 22.3762C1223.03 29.4705 1218.72 35.9165 1213.29 41.3463C1207.86 46.776 1201.42 51.0831 1194.32 54.0217C1187.23 56.9602 1179.62 58.4727 1171.95 58.4727L1171.95 -0.000537872H1230.42Z" fill="#1D1F22"/>
<rect x="1230.42" width="58.4732" height="58.4732" fill="#FFC24D"/>
<rect x="1230.42" y="29.2363" width="58.4732" height="29.2366" fill="#FFC24D"/>
<path d="M1259.66 0C1275.81 0 1288.9 13.0897 1288.9 29.2366L1230.43 29.2366C1230.43 13.0897 1243.51 0 1259.66 0Z" fill="#FFC24D"/>
<rect width="58.4732" height="58.4732" transform="matrix(-1 0 0 1 1347.37 0)" fill="#FFC24D"/>
<rect width="58.4732" height="29.2366" transform="matrix(-1 0 0 1 1347.37 0)" fill="#1D1F22"/>
<path d="M1318.13 58.4727C1301.98 58.4727 1288.89 45.383 1288.89 29.2361L1347.36 29.2361C1347.36 45.383 1334.27 58.4727 1318.13 58.4727Z" fill="#1D1F22"/>
<rect x="1405.84" y="58.4727" width="58.4732" height="58.4732" transform="rotate(180 1405.84 58.4727)" fill="#FFC24D"/>
<path d="M1376.6 29.2363C1360.46 29.2363 1347.37 42.326 1347.37 58.4729L1405.84 58.4729C1405.84 42.326 1392.75 29.2363 1376.6 29.2363Z" fill="#FFC24D"/>
<rect width="58.4732" height="58.4732" transform="matrix(-1 0 0 1 1464.31 0)" fill="#FFC24D"/>
<rect x="704.477" y="58.4727" width="58.4732" height="58.4732" transform="rotate(180 704.477 58.4727)" fill="#1D1F22"/>
<rect width="58.4732" height="58.4732" transform="matrix(-1 0 0 1 762.945 0)" fill="#FFC24D"/>
<rect width="58.4732" height="58.4732" transform="matrix(1 0 0 -1 762.945 58.4727)" fill="#FFC24D"/>
<rect width="58.4732" height="29.2366" transform="matrix(1 0 0 -1 762.945 58.4727)" fill="#1D1F22"/>
<path d="M792.182 0C776.035 0 762.945 13.0897 762.945 29.2366L821.419 29.2366C821.419 13.0897 808.329 0 792.182 0Z" fill="#1D1F22"/>
<rect x="821.422" width="58.4732" height="58.4732" fill="#1D1F22"/>
<rect x="821.422" width="58.4732" height="29.2366" fill="#FFC24D"/>
<path d="M850.662 58.4727C866.809 58.4727 879.898 45.383 879.898 29.2361L821.425 29.2361C821.425 45.383 834.515 58.4727 850.662 58.4727Z" fill="#FFC24D"/>
<rect width="58.4732" height="58.4732" transform="matrix(-1 0 0 1 938.367 0)" fill="#FFC24D"/>
<rect x="996.844" y="58.4727" width="58.4732" height="58.4732" transform="rotate(180 996.844 58.4727)" fill="#1D1F22"/>
<rect width="58.4732" height="58.4732" transform="matrix(-1 0 0 1 1055.32 0)" fill="#FFC24D"/>
<rect width="58.4732" height="29.2366" transform="matrix(-1 0 0 1 1055.32 0)" fill="#1D1F22"/>
<path d="M1026.08 58.4727C1009.93 58.4727 996.844 45.383 996.844 29.2361L1055.32 29.2361C1055.32 45.383 1042.23 58.4727 1026.08 58.4727Z" fill="#1D1F22"/>
<rect x="295.477" y="58.4727" width="58.4732" height="58.4732" transform="rotate(180 295.477 58.4727)" fill="#1D1F22"/>
<rect width="58.4732" height="58.4732" transform="matrix(-1 0 0 1 353.945 0)" fill="#FFC24D"/>
<rect width="58.4732" height="58.4732" transform="matrix(1 0 0 -1 353.945 58.4727)" fill="#FFC24D"/>
<rect width="58.4732" height="29.2366" transform="matrix(1 0 0 -1 353.945 58.4727)" fill="#1D1F22"/>
<path d="M383.182 0C367.035 0 353.945 13.0897 353.945 29.2366L412.419 29.2366C412.419 13.0897 399.329 0 383.182 0Z" fill="#1D1F22"/>
<rect x="412.422" width="58.4732" height="58.4732" fill="#1D1F22"/>
<rect x="412.422" width="58.4732" height="29.2366" fill="#FFC24D"/>
<path d="M441.662 58.4727C457.809 58.4727 470.898 45.383 470.898 29.2361L412.425 29.2361C412.425 45.383 425.515 58.4727 441.662 58.4727Z" fill="#FFC24D"/>
<rect width="58.4732" height="58.4732" transform="matrix(-1 0 0 1 529.367 0)" fill="#FFC24D"/>
<rect x="587.844" y="58.4727" width="58.4732" height="58.4732" transform="rotate(180 587.844 58.4727)" fill="#1D1F22"/>
<rect width="58.4732" height="58.4732" transform="matrix(-1 0 0 1 646.32 0)" fill="#FFC24D"/>
<rect width="58.4732" height="29.2366" transform="matrix(-1 0 0 1 646.32 0)" fill="#1D1F22"/>
<path d="M617.08 58.4727C600.933 58.4727 587.844 45.383 587.844 29.2361L646.317 29.2361C646.317 45.383 633.227 58.4727 617.08 58.4727Z" fill="#1D1F22"/>
<rect width="58.4732" height="58.4732" transform="matrix(1 0 0 -1 -45.0547 58.4727)" fill="#FFC24D"/>
<rect width="58.4732" height="29.2366" transform="matrix(1 0 0 -1 -45.0547 58.4727)" fill="#1D1F22"/>
<path d="M-15.8181 0C-31.965 0 -45.0547 13.0897 -45.0547 29.2366L13.4185 29.2366C13.4185 13.0897 0.328835 0 -15.8181 0Z" fill="#1D1F22"/>
<rect x="13.4219" width="58.4732" height="58.4732" fill="#1D1F22"/>
<rect x="13.4219" width="58.4732" height="29.2366" fill="#FFC24D"/>
<path d="M42.6618 58.4727C58.8088 58.4727 71.8984 45.383 71.8984 29.2361L13.4252 29.2361C13.4252 45.383 26.5149 58.4727 42.6618 58.4727Z" fill="#FFC24D"/>
<rect width="58.4732" height="58.4732" transform="matrix(-1 0 0 1 130.367 0)" fill="#FFC24D"/>
<rect x="188.844" y="58.4727" width="58.4732" height="58.4732" transform="rotate(180 188.844 58.4727)" fill="#1D1F22"/>
<rect width="58.4732" height="58.4732" transform="matrix(-1 0 0 1 247.32 0)" fill="#FFC24D"/>
<rect width="58.4732" height="29.2366" transform="matrix(-1 0 0 1 247.32 0)" fill="#1D1F22"/>
<path d="M218.08 58.4727C201.933 58.4727 188.844 45.383 188.844 29.2361L247.317 29.2361C247.317 45.383 234.227 58.4727 218.08 58.4727Z" fill="#1D1F22"/>
</svg>
