<svg width="165" height="48" viewBox="0 0 165 48" fill="none" xmlns="http://www.w3.org/2000/svg">
<rect width="48" height="48" rx="8" fill="#FFC24D"/>
<g clip-path="url(#clip0_2040_12735)">
<path d="M33.335 19.6137L26.2243 14.083C25.6003 13.5976 24.8323 13.334 24.0417 13.334C23.2511 13.334 22.483 13.5976 21.859 14.083L14.747 19.6137C14.3196 19.9461 13.9738 20.3717 13.736 20.8581C13.4982 21.3446 13.3747 21.8789 13.375 22.4203V32.0203C13.375 32.7276 13.656 33.4059 14.156 33.906C14.6561 34.4061 15.3344 34.687 16.0417 34.687H32.0417C32.7489 34.687 33.4272 34.4061 33.9273 33.906C34.4274 33.4059 34.7083 32.7276 34.7083 32.0203V22.4203C34.7083 21.323 34.2017 20.287 33.335 19.6137Z" fill="white" stroke="white" stroke-width="3" stroke-linecap="round" stroke-linejoin="round"/>
<path d="M29.3307 28C26.3841 29.7773 21.6081 29.7773 18.6641 28" stroke="#FFC24D" stroke-width="3" stroke-linecap="round" stroke-linejoin="round"/>
</g>
<path d="M61.22 22V11.12H63.84V22H61.22ZM61.22 9.9V7.1H63.84V9.9H61.22ZM71.7991 22.24C70.8524 22.24 69.9724 22.0667 69.1591 21.72C68.3591 21.3733 67.6657 20.8933 67.0791 20.28C66.5057 19.6533 66.0857 18.9267 65.8191 18.1L68.0791 17.12C68.4391 17.9733 68.9591 18.6467 69.6391 19.14C70.3191 19.62 71.0857 19.86 71.9391 19.86C72.4191 19.86 72.8324 19.7867 73.1791 19.64C73.5391 19.48 73.8124 19.2667 73.9991 19C74.1991 18.7333 74.2991 18.4133 74.2991 18.04C74.2991 17.6 74.1657 17.24 73.8991 16.96C73.6457 16.6667 73.2591 16.44 72.7391 16.28L69.8791 15.36C68.7191 15 67.8457 14.46 67.2591 13.74C66.6724 13.02 66.3791 12.1733 66.3791 11.2C66.3791 10.3467 66.5857 9.59333 66.9991 8.94C67.4257 8.28667 68.0124 7.78 68.7591 7.42C69.5191 7.04667 70.3857 6.86 71.3591 6.86C72.2524 6.86 73.0724 7.02 73.8191 7.34C74.5657 7.64667 75.2057 8.08 75.7391 8.64C76.2857 9.18667 76.6924 9.83333 76.9591 10.58L74.7191 11.58C74.4257 10.8333 73.9857 10.26 73.3991 9.86C72.8124 9.44667 72.1324 9.24 71.3591 9.24C70.9057 9.24 70.5057 9.32 70.1591 9.48C69.8124 9.62667 69.5391 9.84 69.3391 10.12C69.1524 10.3867 69.0591 10.7067 69.0591 11.08C69.0591 11.4933 69.1924 11.86 69.4591 12.18C69.7257 12.4867 70.1324 12.7267 70.6791 12.9L73.4191 13.76C74.6057 14.1467 75.4924 14.68 76.0791 15.36C76.6791 16.04 76.9791 16.88 76.9791 17.88C76.9791 18.7333 76.7591 19.4867 76.3191 20.14C75.8791 20.7933 75.2724 21.3067 74.4991 21.68C73.7257 22.0533 72.8257 22.24 71.7991 22.24ZM84.3683 22.24C83.2483 22.24 82.2683 21.9867 81.4283 21.48C80.5883 20.9733 79.9349 20.2867 79.4683 19.42C79.0016 18.5533 78.7683 17.5933 78.7683 16.54C78.7683 15.4467 79.0016 14.48 79.4683 13.64C79.9483 12.7867 80.5949 12.1133 81.4083 11.62C82.2349 11.1267 83.1549 10.88 84.1683 10.88C85.0216 10.88 85.7683 11.02 86.4083 11.3C87.0616 11.58 87.6149 11.9667 88.0683 12.46C88.5216 12.9533 88.8683 13.52 89.1083 14.16C89.3483 14.7867 89.4683 15.4667 89.4683 16.2C89.4683 16.3867 89.4549 16.58 89.4283 16.78C89.4149 16.98 89.3816 17.1533 89.3283 17.3H80.9283V15.3H87.8483L86.6083 16.24C86.7283 15.6267 86.6949 15.08 86.5083 14.6C86.3349 14.12 86.0416 13.74 85.6283 13.46C85.2283 13.18 84.7416 13.04 84.1683 13.04C83.6216 13.04 83.1349 13.18 82.7083 13.46C82.2816 13.7267 81.9549 14.1267 81.7283 14.66C81.5149 15.18 81.4349 15.8133 81.4883 16.56C81.4349 17.2267 81.5216 17.82 81.7483 18.34C81.9883 18.8467 82.3349 19.24 82.7883 19.52C83.2549 19.8 83.7883 19.94 84.3883 19.94C84.9883 19.94 85.4949 19.8133 85.9083 19.56C86.3349 19.3067 86.6683 18.9667 86.9083 18.54L89.0283 19.58C88.8149 20.1 88.4816 20.56 88.0283 20.96C87.5749 21.36 87.0349 21.6733 86.4083 21.9C85.7949 22.1267 85.1149 22.24 84.3683 22.24ZM91.4544 22V11.12H93.9144V13.26L93.7144 12.88C93.9677 12.2267 94.381 11.7333 94.9544 11.4C95.541 11.0533 96.221 10.88 96.9944 10.88C97.7944 10.88 98.501 11.0533 99.1144 11.4C99.741 11.7467 100.228 12.2333 100.574 12.86C100.921 13.4733 101.094 14.1867 101.094 15V22H98.4744V15.62C98.4744 15.14 98.381 14.7267 98.1944 14.38C98.0077 14.0333 97.7477 13.7667 97.4144 13.58C97.0944 13.38 96.7144 13.28 96.2744 13.28C95.8477 13.28 95.4677 13.38 95.1344 13.58C94.801 13.7667 94.541 14.0333 94.3544 14.38C94.1677 14.7267 94.0744 15.14 94.0744 15.62V22H91.4544ZM108.37 22.24C107.317 22.24 106.377 21.9933 105.55 21.5C104.723 20.9933 104.07 20.3067 103.59 19.44C103.11 18.5733 102.87 17.6133 102.87 16.56C102.87 15.4933 103.11 14.5333 103.59 13.68C104.07 12.8267 104.723 12.1467 105.55 11.64C106.39 11.1333 107.323 10.88 108.35 10.88C109.177 10.88 109.91 11.0467 110.55 11.38C111.203 11.7 111.717 12.1533 112.09 12.74L111.69 13.28V6.86H114.31V22H111.83V19.9L112.11 20.42C111.737 21.0067 111.217 21.46 110.55 21.78C109.883 22.0867 109.157 22.24 108.37 22.24ZM108.65 19.84C109.25 19.84 109.777 19.7 110.23 19.42C110.683 19.14 111.037 18.7533 111.29 18.26C111.557 17.7667 111.69 17.2 111.69 16.56C111.69 15.9333 111.557 15.3733 111.29 14.88C111.037 14.3733 110.683 13.98 110.23 13.7C109.777 13.42 109.25 13.28 108.65 13.28C108.063 13.28 107.537 13.4267 107.07 13.72C106.603 14 106.237 14.3867 105.97 14.88C105.717 15.36 105.59 15.92 105.59 16.56C105.59 17.2 105.717 17.7667 105.97 18.26C106.237 18.7533 106.603 19.14 107.07 19.42C107.537 19.7 108.063 19.84 108.65 19.84Z" fill="#1D1F22"/>
<path opacity="0.5" d="M60.996 43V34.06H62.172V41.92H66.096V43H60.996ZM70.3579 43.144C69.7339 43.144 69.1699 43 68.6659 42.712C68.1619 42.416 67.7619 42.012 67.4659 41.5C67.1699 40.988 67.0219 40.408 67.0219 39.76C67.0219 39.112 67.1659 38.536 67.4539 38.032C67.7499 37.528 68.1499 37.128 68.6539 36.832C69.1579 36.536 69.7259 36.388 70.3579 36.388C70.9819 36.388 71.5459 36.536 72.0499 36.832C72.5539 37.12 72.9499 37.516 73.2379 38.02C73.5339 38.524 73.6819 39.104 73.6819 39.76C73.6819 40.416 73.5299 41 73.2259 41.512C72.9219 42.016 72.5179 42.416 72.0139 42.712C71.5179 43 70.9659 43.144 70.3579 43.144ZM70.3579 42.064C70.7579 42.064 71.1179 41.964 71.4379 41.764C71.7659 41.564 72.0219 41.288 72.2059 40.936C72.3979 40.584 72.4939 40.192 72.4939 39.76C72.4939 39.32 72.3979 38.932 72.2059 38.596C72.0219 38.252 71.7659 37.98 71.4379 37.78C71.1179 37.572 70.7579 37.468 70.3579 37.468C69.9499 37.468 69.5819 37.572 69.2539 37.78C68.9339 37.98 68.6779 38.252 68.4859 38.596C68.2939 38.932 68.1979 39.32 68.1979 39.76C68.1979 40.192 68.2939 40.584 68.4859 40.936C68.6779 41.288 68.9339 41.564 69.2539 41.764C69.5819 41.964 69.9499 42.064 70.3579 42.064ZM78.2214 45.64C77.7654 45.64 77.3414 45.568 76.9494 45.424C76.5654 45.28 76.2334 45.08 75.9534 44.824C75.6814 44.576 75.4734 44.284 75.3294 43.948L76.3734 43.468C76.4854 43.772 76.6974 44.028 77.0094 44.236C77.3294 44.452 77.7294 44.56 78.2094 44.56C78.5774 44.56 78.9094 44.488 79.2054 44.344C79.5094 44.208 79.7494 44 79.9254 43.72C80.1014 43.448 80.1894 43.116 80.1894 42.724V41.272L80.3934 41.488C80.1694 41.928 79.8454 42.264 79.4214 42.496C79.0054 42.728 78.5454 42.844 78.0414 42.844C77.4334 42.844 76.8894 42.704 76.4094 42.424C75.9294 42.136 75.5534 41.748 75.2814 41.26C75.0094 40.764 74.8734 40.216 74.8734 39.616C74.8734 39.008 75.0094 38.46 75.2814 37.972C75.5534 37.484 75.9254 37.1 76.3974 36.82C76.8774 36.532 77.4214 36.388 78.0294 36.388C78.5334 36.388 78.9894 36.504 79.3974 36.736C79.8134 36.96 80.1454 37.272 80.3934 37.672L80.2254 37.972V36.532H81.3174V42.724C81.3174 43.284 81.1854 43.784 80.9214 44.224C80.6574 44.664 80.2894 45.008 79.8174 45.256C79.3534 45.512 78.8214 45.64 78.2214 45.64ZM78.1374 41.764C78.5214 41.764 78.8654 41.668 79.1694 41.476C79.4814 41.284 79.7294 41.028 79.9134 40.708C80.0974 40.38 80.1894 40.016 80.1894 39.616C80.1894 39.224 80.0974 38.864 79.9134 38.536C79.7294 38.208 79.4814 37.948 79.1694 37.756C78.8654 37.564 78.5214 37.468 78.1374 37.468C77.7454 37.468 77.3894 37.564 77.0694 37.756C76.7494 37.948 76.4974 38.208 76.3134 38.536C76.1374 38.856 76.0494 39.216 76.0494 39.616C76.0494 40.016 76.1374 40.38 76.3134 40.708C76.4974 41.028 76.7454 41.284 77.0574 41.476C77.3774 41.668 77.7374 41.764 78.1374 41.764ZM83.0476 43V36.532H84.1636V43H83.0476ZM83.0476 35.5V34.06H84.1636V35.5H83.0476ZM88.2113 43.144C87.5633 43.144 86.9993 42.984 86.5193 42.664C86.0393 42.344 85.6993 41.912 85.4993 41.368L86.3873 40.936C86.5713 41.32 86.8233 41.624 87.1433 41.848C87.4633 42.072 87.8193 42.184 88.2113 42.184C88.5633 42.184 88.8553 42.1 89.0873 41.932C89.3193 41.764 89.4353 41.544 89.4353 41.272C89.4353 41.08 89.3793 40.928 89.2673 40.816C89.1633 40.696 89.0353 40.604 88.8833 40.54C88.7313 40.468 88.5913 40.416 88.4633 40.384L87.4913 40.108C86.9073 39.94 86.4793 39.7 86.2073 39.388C85.9433 39.076 85.8113 38.712 85.8113 38.296C85.8113 37.912 85.9073 37.58 86.0993 37.3C86.2993 37.012 86.5673 36.788 86.9033 36.628C87.2473 36.468 87.6313 36.388 88.0553 36.388C88.6233 36.388 89.1313 36.532 89.5793 36.82C90.0353 37.108 90.3593 37.512 90.5513 38.032L89.6393 38.452C89.4953 38.116 89.2793 37.852 88.9913 37.66C88.7033 37.46 88.3793 37.36 88.0193 37.36C87.6913 37.36 87.4313 37.444 87.2393 37.612C87.0473 37.772 86.9513 37.976 86.9513 38.224C86.9513 38.408 86.9993 38.56 87.0953 38.68C87.1913 38.792 87.3073 38.88 87.4433 38.944C87.5793 39 87.7113 39.048 87.8393 39.088L88.8953 39.4C89.4233 39.552 89.8313 39.788 90.1193 40.108C90.4153 40.428 90.5633 40.812 90.5633 41.26C90.5633 41.62 90.4633 41.944 90.2633 42.232C90.0633 42.52 89.7873 42.744 89.4353 42.904C89.0833 43.064 88.6753 43.144 88.2113 43.144ZM94.6522 43.072C94.0202 43.072 93.5322 42.892 93.1882 42.532C92.8522 42.172 92.6842 41.664 92.6842 41.008V37.6H91.5082V36.532H91.7482C92.0362 36.532 92.2642 36.444 92.4322 36.268C92.6002 36.092 92.6842 35.86 92.6842 35.572V35.044H93.8002V36.532H95.2522V37.6H93.8002V40.972C93.8002 41.188 93.8322 41.376 93.8962 41.536C93.9682 41.696 94.0842 41.824 94.2442 41.92C94.4042 42.008 94.6162 42.052 94.8802 42.052C94.9362 42.052 95.0042 42.048 95.0842 42.04C95.1722 42.032 95.2522 42.024 95.3242 42.016V43C95.2202 43.024 95.1042 43.04 94.9762 43.048C94.8482 43.064 94.7402 43.072 94.6522 43.072ZM96.782 43V36.532H97.898V43H96.782ZM96.782 35.5V34.06H97.898V35.5H96.782ZM102.63 43.144C101.998 43.144 101.434 42.996 100.938 42.7C100.45 42.404 100.066 42 99.7856 41.488C99.5056 40.976 99.3656 40.4 99.3656 39.76C99.3656 39.112 99.5056 38.536 99.7856 38.032C100.066 37.528 100.45 37.128 100.938 36.832C101.434 36.536 101.998 36.388 102.63 36.388C103.054 36.388 103.45 36.464 103.818 36.616C104.186 36.768 104.51 36.972 104.79 37.228C105.07 37.484 105.274 37.784 105.402 38.128L104.406 38.608C104.254 38.272 104.022 38 103.71 37.792C103.398 37.576 103.038 37.468 102.63 37.468C102.238 37.468 101.882 37.568 101.562 37.768C101.25 37.968 101.002 38.24 100.818 38.584C100.634 38.928 100.542 39.324 100.542 39.772C100.542 40.204 100.634 40.596 100.818 40.948C101.002 41.292 101.25 41.564 101.562 41.764C101.882 41.964 102.238 42.064 102.63 42.064C103.038 42.064 103.398 41.96 103.71 41.752C104.022 41.536 104.254 41.252 104.406 40.9L105.402 41.404C105.274 41.74 105.07 42.04 104.79 42.304C104.51 42.56 104.186 42.764 103.818 42.916C103.45 43.068 103.054 43.144 102.63 43.144ZM109.176 43.144C108.528 43.144 107.964 42.984 107.484 42.664C107.004 42.344 106.664 41.912 106.464 41.368L107.352 40.936C107.536 41.32 107.788 41.624 108.108 41.848C108.428 42.072 108.784 42.184 109.176 42.184C109.528 42.184 109.82 42.1 110.052 41.932C110.284 41.764 110.4 41.544 110.4 41.272C110.4 41.08 110.344 40.928 110.232 40.816C110.128 40.696 110 40.604 109.848 40.54C109.696 40.468 109.556 40.416 109.428 40.384L108.456 40.108C107.872 39.94 107.444 39.7 107.172 39.388C106.908 39.076 106.776 38.712 106.776 38.296C106.776 37.912 106.872 37.58 107.064 37.3C107.264 37.012 107.532 36.788 107.868 36.628C108.212 36.468 108.596 36.388 109.02 36.388C109.588 36.388 110.096 36.532 110.544 36.82C111 37.108 111.324 37.512 111.516 38.032L110.604 38.452C110.46 38.116 110.244 37.852 109.956 37.66C109.668 37.46 109.344 37.36 108.984 37.36C108.656 37.36 108.396 37.444 108.204 37.612C108.012 37.772 107.916 37.976 107.916 38.224C107.916 38.408 107.964 38.56 108.06 38.68C108.156 38.792 108.272 38.88 108.408 38.944C108.544 39 108.676 39.048 108.804 39.088L109.86 39.4C110.388 39.552 110.796 39.788 111.084 40.108C111.38 40.428 111.528 40.812 111.528 41.26C111.528 41.62 111.428 41.944 111.228 42.232C111.028 42.52 110.752 42.744 110.4 42.904C110.048 43.064 109.64 43.144 109.176 43.144ZM115.195 43V34.06H116.275L119.623 38.824H119.071L122.395 34.06H123.475V43H122.287V35.548L122.707 35.68L119.383 40.36H119.287L115.999 35.68L116.371 35.548V43H115.195ZM127.225 43.144C126.801 43.144 126.425 43.068 126.097 42.916C125.777 42.756 125.525 42.54 125.341 42.268C125.157 41.988 125.065 41.668 125.065 41.308C125.065 40.964 125.137 40.656 125.281 40.384C125.433 40.104 125.665 39.868 125.977 39.676C126.297 39.484 126.697 39.348 127.177 39.268L129.577 38.872V39.808L127.429 40.168C127.013 40.24 126.709 40.372 126.517 40.564C126.333 40.756 126.241 40.992 126.241 41.272C126.241 41.536 126.345 41.756 126.553 41.932C126.769 42.108 127.037 42.196 127.357 42.196C127.765 42.196 128.117 42.112 128.413 41.944C128.717 41.768 128.953 41.532 129.121 41.236C129.297 40.94 129.385 40.612 129.385 40.252V38.608C129.385 38.256 129.253 37.972 128.989 37.756C128.733 37.532 128.393 37.42 127.969 37.42C127.601 37.42 127.273 37.516 126.985 37.708C126.705 37.892 126.497 38.14 126.361 38.452L125.389 37.948C125.509 37.652 125.701 37.388 125.965 37.156C126.229 36.916 126.537 36.728 126.889 36.592C127.241 36.456 127.609 36.388 127.993 36.388C128.489 36.388 128.925 36.484 129.301 36.676C129.677 36.86 129.969 37.12 130.177 37.456C130.393 37.784 130.501 38.168 130.501 38.608V43H129.409V41.776L129.613 41.848C129.477 42.104 129.293 42.328 129.061 42.52C128.829 42.712 128.557 42.864 128.245 42.976C127.933 43.088 127.593 43.144 127.225 43.144ZM132.231 43V36.532H133.323V37.792L133.143 37.684C133.303 37.276 133.559 36.96 133.911 36.736C134.271 36.504 134.691 36.388 135.171 36.388C135.635 36.388 136.047 36.492 136.407 36.7C136.775 36.908 137.063 37.196 137.271 37.564C137.487 37.932 137.595 38.348 137.595 38.812V43H136.467V39.172C136.467 38.812 136.403 38.508 136.275 38.26C136.147 38.012 135.963 37.82 135.723 37.684C135.491 37.54 135.223 37.468 134.919 37.468C134.615 37.468 134.343 37.54 134.103 37.684C133.871 37.82 133.687 38.016 133.551 38.272C133.415 38.52 133.347 38.82 133.347 39.172V43H132.231ZM141.088 43.144C140.664 43.144 140.288 43.068 139.96 42.916C139.64 42.756 139.388 42.54 139.204 42.268C139.02 41.988 138.928 41.668 138.928 41.308C138.928 40.964 139 40.656 139.144 40.384C139.296 40.104 139.528 39.868 139.84 39.676C140.16 39.484 140.56 39.348 141.04 39.268L143.44 38.872V39.808L141.292 40.168C140.876 40.24 140.572 40.372 140.38 40.564C140.196 40.756 140.104 40.992 140.104 41.272C140.104 41.536 140.208 41.756 140.416 41.932C140.632 42.108 140.9 42.196 141.22 42.196C141.628 42.196 141.98 42.112 142.276 41.944C142.58 41.768 142.816 41.532 142.984 41.236C143.16 40.94 143.248 40.612 143.248 40.252V38.608C143.248 38.256 143.116 37.972 142.852 37.756C142.596 37.532 142.256 37.42 141.832 37.42C141.464 37.42 141.136 37.516 140.848 37.708C140.568 37.892 140.36 38.14 140.224 38.452L139.252 37.948C139.372 37.652 139.564 37.388 139.828 37.156C140.092 36.916 140.4 36.728 140.752 36.592C141.104 36.456 141.472 36.388 141.856 36.388C142.352 36.388 142.788 36.484 143.164 36.676C143.54 36.86 143.832 37.12 144.04 37.456C144.256 37.784 144.364 38.168 144.364 38.608V43H143.272V41.776L143.476 41.848C143.34 42.104 143.156 42.328 142.924 42.52C142.692 42.712 142.42 42.864 142.108 42.976C141.796 43.088 141.456 43.144 141.088 43.144ZM149.178 45.64C148.722 45.64 148.298 45.568 147.906 45.424C147.522 45.28 147.19 45.08 146.91 44.824C146.638 44.576 146.43 44.284 146.286 43.948L147.33 43.468C147.442 43.772 147.654 44.028 147.966 44.236C148.286 44.452 148.686 44.56 149.166 44.56C149.534 44.56 149.866 44.488 150.162 44.344C150.466 44.208 150.706 44 150.882 43.72C151.058 43.448 151.146 43.116 151.146 42.724V41.272L151.35 41.488C151.126 41.928 150.802 42.264 150.378 42.496C149.962 42.728 149.502 42.844 148.998 42.844C148.39 42.844 147.846 42.704 147.366 42.424C146.886 42.136 146.51 41.748 146.238 41.26C145.966 40.764 145.83 40.216 145.83 39.616C145.83 39.008 145.966 38.46 146.238 37.972C146.51 37.484 146.882 37.1 147.354 36.82C147.834 36.532 148.378 36.388 148.986 36.388C149.49 36.388 149.946 36.504 150.354 36.736C150.77 36.96 151.102 37.272 151.35 37.672L151.182 37.972V36.532H152.274V42.724C152.274 43.284 152.142 43.784 151.878 44.224C151.614 44.664 151.246 45.008 150.774 45.256C150.31 45.512 149.778 45.64 149.178 45.64ZM149.094 41.764C149.478 41.764 149.822 41.668 150.126 41.476C150.438 41.284 150.686 41.028 150.87 40.708C151.054 40.38 151.146 40.016 151.146 39.616C151.146 39.224 151.054 38.864 150.87 38.536C150.686 38.208 150.438 37.948 150.126 37.756C149.822 37.564 149.478 37.468 149.094 37.468C148.702 37.468 148.346 37.564 148.026 37.756C147.706 37.948 147.454 38.208 147.27 38.536C147.094 38.856 147.006 39.216 147.006 39.616C147.006 40.016 147.094 40.38 147.27 40.708C147.454 41.028 147.702 41.284 148.014 41.476C148.334 41.668 148.694 41.764 149.094 41.764ZM156.981 43.144C156.357 43.144 155.801 42.996 155.313 42.7C154.825 42.404 154.441 42 154.161 41.488C153.881 40.968 153.741 40.388 153.741 39.748C153.741 39.1 153.877 38.524 154.149 38.02C154.429 37.516 154.805 37.12 155.277 36.832C155.757 36.536 156.293 36.388 156.885 36.388C157.365 36.388 157.789 36.476 158.157 36.652C158.533 36.82 158.849 37.052 159.105 37.348C159.369 37.636 159.569 37.968 159.705 38.344C159.849 38.712 159.921 39.096 159.921 39.496C159.921 39.584 159.913 39.684 159.897 39.796C159.889 39.9 159.877 40 159.861 40.096H154.557V39.136H159.213L158.685 39.568C158.757 39.152 158.717 38.78 158.565 38.452C158.413 38.124 158.189 37.864 157.893 37.672C157.597 37.48 157.261 37.384 156.885 37.384C156.509 37.384 156.165 37.48 155.853 37.672C155.541 37.864 155.297 38.14 155.121 38.5C154.953 38.852 154.885 39.272 154.917 39.76C154.885 40.232 154.957 40.648 155.133 41.008C155.317 41.36 155.573 41.636 155.901 41.836C156.237 42.028 156.601 42.124 156.993 42.124C157.425 42.124 157.789 42.024 158.085 41.824C158.381 41.624 158.621 41.368 158.805 41.056L159.741 41.536C159.613 41.832 159.413 42.104 159.141 42.352C158.877 42.592 158.561 42.784 158.193 42.928C157.833 43.072 157.429 43.144 156.981 43.144ZM161.376 43V36.532H162.468V37.72L162.348 37.552C162.5 37.184 162.732 36.912 163.044 36.736C163.356 36.552 163.736 36.46 164.184 36.46H164.58V37.516H164.016C163.56 37.516 163.192 37.66 162.912 37.948C162.632 38.228 162.492 38.628 162.492 39.148V43H161.376Z" fill="#1D1F22"/>
<defs>
<clipPath id="clip0_2040_12735">
<rect width="32" height="32" fill="white" transform="translate(8 8)"/>
</clipPath>
</defs>
</svg>
