<svg width="40" height="40" viewBox="0 0 40 40" fill="none" xmlns="http://www.w3.org/2000/svg">
<rect width="40" height="40" rx="8" fill="#F8F8F8"/>
<path d="M16.625 20H16.25M20.375 20H20M24.125 20H23.75M16.625 20C16.625 20.0995 16.5855 20.1948 16.5152 20.2652C16.4448 20.3355 16.3495 20.375 16.25 20.375C16.1505 20.375 16.0552 20.3355 15.9848 20.2652C15.9145 20.1948 15.875 20.0995 15.875 20C15.875 19.9005 15.9145 19.8052 15.9848 19.7348C16.0552 19.6645 16.1505 19.625 16.25 19.625C16.3495 19.625 16.4448 19.6645 16.5152 19.7348C16.5855 19.8052 16.625 19.9005 16.625 20V20ZM20.375 20C20.375 20.0995 20.3355 20.1948 20.2652 20.2652C20.1948 20.3355 20.0995 20.375 20 20.375C19.9005 20.375 19.8052 20.3355 19.7348 20.2652C19.6645 20.1948 19.625 20.0995 19.625 20C19.625 19.9005 19.6645 19.8052 19.7348 19.7348C19.8052 19.6645 19.9005 19.625 20 19.625C20.0995 19.625 20.1948 19.6645 20.2652 19.7348C20.3355 19.8052 20.375 19.9005 20.375 20V20ZM24.125 20C24.125 20.0995 24.0855 20.1948 24.0152 20.2652C23.9448 20.3355 23.8495 20.375 23.75 20.375C23.6505 20.375 23.5552 20.3355 23.4848 20.2652C23.4145 20.1948 23.375 20.0995 23.375 20C23.375 19.9005 23.4145 19.8052 23.4848 19.7348C23.5552 19.6645 23.6505 19.625 23.75 19.625C23.8495 19.625 23.9448 19.6645 24.0152 19.7348C24.0855 19.8052 24.125 19.9005 24.125 20V20ZM29 20C29 24.556 24.97 28.25 20 28.25C19.1372 28.251 18.278 28.1377 17.445 27.913C16.2708 28.7389 14.8383 29.1141 13.41 28.97C13.2512 28.9547 13.0931 28.933 12.936 28.905C13.4289 28.3241 13.7655 27.6272 13.914 26.88C14.004 26.423 13.781 25.979 13.447 25.654C11.93 24.178 11 22.189 11 20C11 15.444 15.03 11.75 20 11.75C24.97 11.75 29 15.444 29 20Z" stroke="black" stroke-width="1.5" stroke-linecap="round" stroke-linejoin="round"/>
<circle cx="27" cy="15" r="5" fill="#F8F8F8"/>
<circle cx="27" cy="15" r="3" fill="#FFC24D"/>
</svg>
