<svg width="20" height="20" viewBox="0 0 20 20" fill="none" xmlns="http://www.w3.org/2000/svg">
<path d="M10 13.75C9.25832 13.75 8.5333 13.5301 7.91661 13.118C7.29993 12.706 6.81928 12.1203 6.53545 11.4351C6.25162 10.7498 6.17736 9.99584 6.32206 9.26841C6.46675 8.54098 6.8239 7.8728 7.34835 7.34835C7.8728 6.8239 8.54098 6.46675 9.26841 6.32206C9.99584 6.17736 10.7498 6.25162 11.4351 6.53545C12.1203 6.81928 12.706 7.29993 13.118 7.91661C13.5301 8.5333 13.75 9.25832 13.75 10C13.75 10.9946 13.3549 11.9484 12.6517 12.6517C11.9484 13.3549 10.9946 13.75 10 13.75ZM10 7.5C9.50555 7.5 9.0222 7.64662 8.61108 7.92133C8.19995 8.19603 7.87952 8.58648 7.6903 9.04329C7.50108 9.50011 7.45158 10.0028 7.54804 10.4877C7.6445 10.9727 7.8826 11.4181 8.23223 11.7678C8.58187 12.1174 9.02732 12.3555 9.51228 12.452C9.99723 12.5484 10.4999 12.4989 10.9567 12.3097C11.4135 12.1205 11.804 11.8 12.0787 11.3889C12.3534 10.9778 12.5 10.4945 12.5 10C12.5 9.33696 12.2366 8.70108 11.7678 8.23223C11.2989 7.76339 10.663 7.5 10 7.5Z" fill="#858585"/>
<path d="M13.125 19.3732H6.875C6.21196 19.3732 5.57607 19.1098 5.10723 18.6409C4.63839 18.1721 4.375 17.5362 4.375 16.8732V15.2794C4.37612 15.1553 4.41417 15.0343 4.48429 14.9319C4.55442 14.8295 4.65344 14.7503 4.76875 14.7044L7.04375 13.7919C7.12087 13.7577 7.2041 13.7395 7.28845 13.7383C7.3728 13.7372 7.45651 13.7531 7.53453 13.7852C7.61256 13.8172 7.6833 13.8647 7.74247 13.9248C7.80165 13.9849 7.84804 14.0564 7.87886 14.1349C7.90968 14.2135 7.92429 14.2974 7.9218 14.3817C7.9193 14.4661 7.89977 14.549 7.86437 14.6256C7.82897 14.7021 7.77844 14.7707 7.71582 14.8273C7.6532 14.8838 7.57978 14.927 7.5 14.9544L5.625 15.7044V16.8732C5.625 17.2047 5.7567 17.5226 5.99112 17.7571C6.22554 17.9915 6.54348 18.1232 6.875 18.1232H13.125C13.4565 18.1232 13.7745 17.9915 14.0089 17.7571C14.2433 17.5226 14.375 17.2047 14.375 16.8732V15.7044L12.5 14.9544C12.3458 14.8931 12.2224 14.773 12.1567 14.6207C12.0911 14.4683 12.0887 14.2961 12.15 14.1419C12.2113 13.9878 12.3314 13.8643 12.4838 13.7986C12.6361 13.733 12.8083 13.7306 12.9625 13.7919L15.2375 14.7044C15.3528 14.7503 15.4518 14.8295 15.522 14.9319C15.5921 15.0343 15.6301 15.1553 15.6313 15.2794V16.8732C15.6313 17.202 15.5664 17.5276 15.4404 17.8313C15.3143 18.135 15.1296 18.4109 14.8968 18.6431C14.664 18.8754 14.3877 19.0594 14.0836 19.1847C13.7796 19.3099 13.4538 19.374 13.125 19.3732Z" fill="#858585"/>
<path d="M5.625 6.875C5.00693 6.875 4.40275 6.69172 3.88884 6.34834C3.37494 6.00496 2.9744 5.51691 2.73788 4.94589C2.50135 4.37487 2.43947 3.74654 2.56005 3.14034C2.68063 2.53415 2.97825 1.97733 3.41529 1.54029C3.85233 1.10325 4.40915 0.805626 5.01534 0.685047C5.62154 0.564469 6.24987 0.626354 6.82089 0.862878C7.39191 1.0994 7.87996 1.49994 8.22334 2.01384C8.56672 2.52775 8.75 3.13193 8.75 3.75C8.75 4.16038 8.66917 4.56674 8.51213 4.94589C8.35508 5.32503 8.12489 5.66953 7.83471 5.95971C7.54453 6.24989 7.20003 6.48008 6.82089 6.63713C6.44174 6.79417 6.03538 6.875 5.625 6.875ZM5.625 1.875C5.25416 1.875 4.89165 1.98497 4.58331 2.191C4.27496 2.39702 4.03464 2.68986 3.89273 3.03247C3.75081 3.37508 3.71368 3.75208 3.78603 4.1158C3.85838 4.47951 4.03695 4.8136 4.29918 5.07583C4.5614 5.33805 4.89549 5.51663 5.25921 5.58897C5.62292 5.66132 5.99992 5.62419 6.34253 5.48228C6.68514 5.34036 6.97798 5.10004 7.18401 4.7917C7.39003 4.48335 7.5 4.12084 7.5 3.75C7.5 3.25272 7.30246 2.77581 6.95083 2.42418C6.5992 2.07255 6.12228 1.875 5.625 1.875Z" fill="#858585"/>
<path d="M5 12.1175H3.125C2.46196 12.1175 1.82607 11.8541 1.35723 11.3853C0.888392 10.9165 0.625 10.2806 0.625 9.61753V8.52378C0.624879 8.39861 0.662347 8.27628 0.732551 8.17265C0.802755 8.06901 0.902459 7.98885 1.01875 7.94253L3.0125 7.16128C3.16434 7.10101 3.33374 7.10258 3.48443 7.16566C3.63512 7.22874 3.75513 7.34832 3.81875 7.49878C3.8492 7.5751 3.86429 7.65668 3.86317 7.73885C3.86206 7.82101 3.84475 7.90215 3.81224 7.97761C3.77973 8.05308 3.73266 8.12139 3.67372 8.17865C3.61478 8.2359 3.54513 8.28098 3.46875 8.31128L1.875 8.94878V9.61753C1.875 9.94905 2.0067 10.267 2.24112 10.5014C2.47554 10.7358 2.79348 10.8675 3.125 10.8675H5C5.16576 10.8675 5.32473 10.9334 5.44194 11.0506C5.55915 11.1678 5.625 11.3268 5.625 11.4925C5.625 11.6583 5.55915 11.8173 5.44194 11.9345C5.32473 12.0517 5.16576 12.1175 5 12.1175Z" fill="#858585"/>
<path d="M14.375 6.875C13.7569 6.875 13.1527 6.69172 12.6388 6.34834C12.1249 6.00496 11.7244 5.51691 11.4879 4.94589C11.2514 4.37487 11.1895 3.74654 11.31 3.14034C11.4306 2.53415 11.7283 1.97733 12.1653 1.54029C12.6023 1.10325 13.1592 0.805626 13.7653 0.685047C14.3715 0.564469 14.9999 0.626354 15.5709 0.862878C16.1419 1.0994 16.63 1.49994 16.9733 2.01384C17.3167 2.52775 17.5 3.13193 17.5 3.75C17.5 4.5788 17.1708 5.37366 16.5847 5.95971C15.9987 6.54576 15.2038 6.875 14.375 6.875ZM14.375 1.875C14.0042 1.875 13.6417 1.98497 13.3333 2.191C13.025 2.39702 12.7846 2.68986 12.6427 3.03247C12.5008 3.37508 12.4637 3.75208 12.536 4.1158C12.6084 4.47951 12.787 4.8136 13.0492 5.07583C13.3114 5.33805 13.6455 5.51663 14.0092 5.58897C14.3729 5.66132 14.7499 5.62419 15.0925 5.48228C15.4351 5.34036 15.728 5.10004 15.934 4.7917C16.14 4.48335 16.25 4.12084 16.25 3.75C16.25 3.25272 16.0525 2.77581 15.7008 2.42418C15.3492 2.07255 14.8723 1.875 14.375 1.875Z" fill="#858585"/>
<path d="M16.875 12.1173H15C14.8342 12.1173 14.6753 12.0515 14.5581 11.9342C14.4408 11.817 14.375 11.6581 14.375 11.4923C14.375 11.3265 14.4408 11.1676 14.5581 11.0504C14.6753 10.9332 14.8342 10.8673 15 10.8673H16.875C17.2065 10.8673 17.5245 10.7356 17.7589 10.5012C17.9933 10.2668 18.125 9.94883 18.125 9.61731V8.94856L16.5313 8.32356C16.4549 8.29325 16.3852 8.24818 16.3263 8.19092C16.2673 8.13367 16.2203 8.06535 16.1878 7.98989C16.1553 7.91442 16.1379 7.83328 16.1368 7.75112C16.1357 7.66896 16.1508 7.58738 16.1812 7.51106C16.2413 7.3572 16.3598 7.23336 16.5109 7.1666C16.662 7.09985 16.8333 7.09561 16.9875 7.15481L18.9813 7.93606C19.0975 7.98237 19.1972 8.06254 19.2674 8.16617C19.3377 8.26981 19.3751 8.39213 19.375 8.51731V9.61106C19.3758 9.93989 19.3118 10.2657 19.1865 10.5697C19.0612 10.8737 18.8772 11.1501 18.645 11.3829C18.4128 11.6157 18.1369 11.8004 17.8332 11.9264C17.5294 12.0524 17.2038 12.1173 16.875 12.1173Z" fill="#858585"/>
</svg>
