<svg width="24" height="24" viewBox="0 0 24 24" fill="none" xmlns="http://www.w3.org/2000/svg">
<path d="M18.7856 12.0017C18.7856 10.9844 17.9609 10.1598 16.9436 10.1598C15.9263 10.1598 15.1016 10.9844 15.1016 12.0017C15.1016 13.0191 15.9263 13.8438 16.9436 13.8438C17.9609 13.8438 18.7856 13.0191 18.7856 12.0017Z" fill="#1B1B1B" fill-opacity="0.69"/>
<path d="M18.7856 5.39238C18.7856 4.37507 17.9609 3.55038 16.9436 3.55038C15.9263 3.55038 15.1016 4.37507 15.1016 5.39238C15.1016 6.40968 15.9263 7.23438 16.9436 7.23438C17.9609 7.23438 18.7856 6.40968 18.7856 5.39238Z" fill="#1B1B1B" fill-opacity="0.69"/>
<path d="M18.7856 18.6111C18.7856 17.5938 17.9609 16.7691 16.9436 16.7691C15.9263 16.7691 15.1016 17.5938 15.1016 18.6111C15.1016 19.6284 15.9263 20.4531 16.9436 20.4531C17.9609 20.4531 18.7856 19.6284 18.7856 18.6111Z" fill="#1B1B1B" fill-opacity="0.69"/>
</svg>
