<svg width="24" height="22" viewBox="0 0 24 22" fill="none" xmlns="http://www.w3.org/2000/svg">
<path d="M15.751 5.5C15.751 6.41168 15.3559 7.28602 14.6526 7.93068C13.9493 8.57534 12.9955 8.9375 12.001 8.9375C11.0064 8.9375 10.0526 8.57534 9.3493 7.93068C8.64604 7.28602 8.25095 6.41168 8.25095 5.5C8.25095 4.58832 8.64604 3.71398 9.3493 3.06932C10.0526 2.42466 11.0064 2.0625 12.001 2.0625C12.9955 2.0625 13.9493 2.42466 14.6526 3.06932C15.3559 3.71398 15.751 4.58832 15.751 5.5V5.5ZM4.50195 18.4415C4.53409 16.6378 5.33829 14.918 6.74113 13.6529C8.14397 12.3878 10.033 11.6788 12.001 11.6788C13.9689 11.6788 15.8579 12.3878 17.2608 13.6529C18.6636 14.918 19.4678 16.6378 19.5 18.4415C17.1473 19.4304 14.5891 19.9407 12.001 19.9375C9.32495 19.9375 6.78495 19.4022 4.50195 18.4415Z" stroke="#858585" stroke-width="1.5" stroke-linecap="round" stroke-linejoin="round"/>
</svg>
