<svg width="41" height="40" viewBox="0 0 41 40" fill="none" xmlns="http://www.w3.org/2000/svg">
<circle cx="20.8555" cy="20" r="20" fill="#F0B865"/>
<mask id="mask0_401_43335" style="mask-type:alpha" maskUnits="userSpaceOnUse" x="0" y="0" width="41" height="40">
<circle cx="20.8555" cy="20" r="20" fill="#FFB154"/>
</mask>
<g mask="url(#mask0_401_43335)">
<rect opacity="0.3" x="20.8555" width="20" height="40" fill="white"/>
</g>
<path d="M25.8559 15.966C25.8059 15.9577 25.7475 15.9577 25.6975 15.966C24.5475 15.9244 23.6309 14.9827 23.6309 13.816C23.6309 12.6244 24.5892 11.666 25.7809 11.666C26.9725 11.666 27.9309 12.6327 27.9309 13.816C27.9225 14.9827 27.0059 15.9244 25.8559 15.966Z" stroke="white" stroke-width="2" stroke-linecap="round" stroke-linejoin="round"/>
<path d="M24.9977 22.0328C26.1393 22.2245 27.3977 22.0245 28.281 21.4328C29.456 20.6495 29.456 19.3662 28.281 18.5828C27.3893 17.9912 26.1143 17.7911 24.9727 17.9911" stroke="white" stroke-width="2" stroke-linecap="round" stroke-linejoin="round"/>
<path d="M15.8289 15.966C15.8789 15.9577 15.9372 15.9577 15.9872 15.966C17.1372 15.9244 18.0539 14.9827 18.0539 13.816C18.0539 12.6244 17.0956 11.666 15.9039 11.666C14.7122 11.666 13.7539 12.6327 13.7539 13.816C13.7622 14.9827 14.6789 15.9244 15.8289 15.966Z" stroke="white" stroke-width="2" stroke-linecap="round" stroke-linejoin="round"/>
<path d="M16.688 22.0328C15.5464 22.2245 14.288 22.0245 13.4047 21.4328C12.2297 20.6495 12.2297 19.3662 13.4047 18.5828C14.2964 17.9912 15.5714 17.7911 16.713 17.9911" stroke="white" stroke-width="2" stroke-linecap="round" stroke-linejoin="round"/>
<path d="M20.8559 22.1926C20.8059 22.1842 20.7475 22.1842 20.6975 22.1926C19.5475 22.1509 18.6309 21.2092 18.6309 20.0426C18.6309 18.8509 19.5892 17.8926 20.7809 17.8926C21.9725 17.8926 22.9309 18.8592 22.9309 20.0426C22.9225 21.2092 22.0059 22.1592 20.8559 22.1926Z" stroke="white" stroke-width="2" stroke-linecap="round" stroke-linejoin="round"/>
<path d="M18.4301 24.8168C17.2551 25.6001 17.2551 26.8835 18.4301 27.6668C19.7634 28.5585 21.9467 28.5585 23.2801 27.6668C24.4551 26.8835 24.4551 25.6001 23.2801 24.8168C21.9551 23.9335 19.7634 23.9335 18.4301 24.8168Z" stroke="white" stroke-width="2" stroke-linecap="round" stroke-linejoin="round"/>
</svg>
