<svg width="24" height="24" viewBox="0 0 24 24" fill="none" xmlns="http://www.w3.org/2000/svg">
<path d="M18.7836 11.9998C18.7836 10.9825 17.9589 10.1578 16.9416 10.1578C15.9243 10.1578 15.0996 10.9825 15.0996 11.9998C15.0996 13.0171 15.9243 13.8418 16.9416 13.8418C17.9589 13.8418 18.7836 13.0171 18.7836 11.9998Z" fill="#1B1B1B" fill-opacity="0.69"/>
<path d="M18.7836 5.39042C18.7836 4.37311 17.9589 3.54842 16.9416 3.54842C15.9243 3.54842 15.0996 4.37311 15.0996 5.39042C15.0996 6.40773 15.9243 7.23242 16.9416 7.23242C17.9589 7.23242 18.7836 6.40773 18.7836 5.39042Z" fill="#1B1B1B" fill-opacity="0.69"/>
<path d="M18.7836 18.6092C18.7836 17.5919 17.9589 16.7672 16.9416 16.7672C15.9243 16.7672 15.0996 17.5919 15.0996 18.6092C15.0996 19.6265 15.9243 20.4512 16.9416 20.4512C17.9589 20.4512 18.7836 19.6265 18.7836 18.6092Z" fill="#1B1B1B" fill-opacity="0.69"/>
</svg>
