<svg width="20" height="20" viewBox="0 0 20 20" fill="none" xmlns="http://www.w3.org/2000/svg">
<g clip-path="url(#clip0_401_45622)">
<path d="M10 13.75C9.25832 13.75 8.5333 13.5301 7.91661 13.118C7.29993 12.706 6.81928 12.1203 6.53545 11.4351C6.25162 10.7498 6.17736 9.99584 6.32206 9.26841C6.46675 8.54098 6.8239 7.8728 7.34835 7.34835C7.8728 6.8239 8.54098 6.46675 9.26841 6.32206C9.99584 6.17736 10.7498 6.25162 11.4351 6.53545C12.1203 6.81928 12.706 7.29993 13.118 7.91661C13.5301 8.5333 13.75 9.25832 13.75 10C13.75 10.9946 13.3549 11.9484 12.6517 12.6517C11.9484 13.3549 10.9946 13.75 10 13.75ZM10 7.5C9.50555 7.5 9.0222 7.64662 8.61108 7.92133C8.19995 8.19603 7.87952 8.58648 7.6903 9.04329C7.50108 9.50011 7.45158 10.0028 7.54804 10.4877C7.6445 10.9727 7.8826 11.4181 8.23223 11.7678C8.58187 12.1174 9.02732 12.3555 9.51228 12.452C9.99723 12.5484 10.4999 12.4989 10.9567 12.3097C11.4135 12.1205 11.804 11.8 12.0787 11.3889C12.3534 10.9778 12.5 10.4945 12.5 10C12.5 9.33696 12.2366 8.70108 11.7678 8.23223C11.2989 7.76339 10.663 7.5 10 7.5Z" fill="#858585"/>
<path d="M13.125 19.3751H6.875C6.21196 19.3751 5.57607 19.1117 5.10723 18.6429C4.63839 18.174 4.375 17.5382 4.375 16.8751V15.2814C4.37612 15.1573 4.41417 15.0363 4.48429 14.9339C4.55442 14.8315 4.65344 14.7523 4.76875 14.7064L7.04375 13.7939C7.12087 13.7597 7.2041 13.7415 7.28845 13.7403C7.3728 13.7391 7.45651 13.7551 7.53453 13.7871C7.61256 13.8192 7.6833 13.8667 7.74247 13.9268C7.80165 13.9869 7.84804 14.0584 7.87886 14.1369C7.90968 14.2154 7.92429 14.2994 7.9218 14.3837C7.9193 14.468 7.89977 14.5509 7.86437 14.6275C7.82897 14.7041 7.77844 14.7727 7.71582 14.8292C7.6532 14.8857 7.57978 14.929 7.5 14.9564L5.625 15.7064V16.8751C5.625 17.2066 5.7567 17.5246 5.99112 17.759C6.22554 17.9934 6.54348 18.1251 6.875 18.1251H13.125C13.4565 18.1251 13.7745 17.9934 14.0089 17.759C14.2433 17.5246 14.375 17.2066 14.375 16.8751V15.7064L12.5 14.9564C12.3458 14.895 12.2224 14.775 12.1567 14.6226C12.0911 14.4702 12.0887 14.298 12.15 14.1439C12.2113 13.9897 12.3314 13.8662 12.4838 13.8006C12.6361 13.735 12.8083 13.7325 12.9625 13.7939L15.2375 14.7064C15.3528 14.7523 15.4518 14.8315 15.522 14.9339C15.5921 15.0363 15.6301 15.1573 15.6313 15.2814V16.8751C15.6313 17.204 15.5664 17.5296 15.4404 17.8333C15.3143 18.137 15.1296 18.4129 14.8968 18.6451C14.664 18.8773 14.3877 19.0613 14.0836 19.1866C13.7796 19.3119 13.4538 19.3759 13.125 19.3751Z" fill="#858585"/>
<path d="M5.625 6.875C5.00693 6.875 4.40275 6.69172 3.88884 6.34834C3.37494 6.00496 2.9744 5.51691 2.73788 4.94589C2.50135 4.37487 2.43947 3.74654 2.56005 3.14034C2.68063 2.53415 2.97825 1.97733 3.41529 1.54029C3.85233 1.10325 4.40915 0.805626 5.01534 0.685047C5.62154 0.564469 6.24987 0.626354 6.82089 0.862878C7.39191 1.0994 7.87996 1.49994 8.22334 2.01384C8.56672 2.52775 8.75 3.13193 8.75 3.75C8.75 4.16038 8.66917 4.56674 8.51213 4.94589C8.35508 5.32503 8.12489 5.66953 7.83471 5.95971C7.54453 6.24989 7.20003 6.48008 6.82089 6.63713C6.44174 6.79417 6.03538 6.875 5.625 6.875ZM5.625 1.875C5.25416 1.875 4.89165 1.98497 4.58331 2.191C4.27496 2.39702 4.03464 2.68986 3.89273 3.03247C3.75081 3.37508 3.71368 3.75208 3.78603 4.1158C3.85838 4.47951 4.03695 4.8136 4.29918 5.07583C4.5614 5.33805 4.89549 5.51663 5.25921 5.58897C5.62292 5.66132 5.99992 5.62419 6.34253 5.48228C6.68514 5.34036 6.97798 5.10004 7.18401 4.7917C7.39003 4.48335 7.5 4.12084 7.5 3.75C7.5 3.25272 7.30246 2.77581 6.95083 2.42418C6.5992 2.07255 6.12228 1.875 5.625 1.875Z" fill="#858585"/>
<path d="M5 12.1195H3.125C2.46196 12.1195 1.82607 11.8561 1.35723 11.3873C0.888392 10.9184 0.625 10.2825 0.625 9.61949V8.52574C0.624879 8.40056 0.662347 8.27823 0.732551 8.1746C0.802755 8.07097 0.902459 7.9908 1.01875 7.94449L3.0125 7.16324C3.16434 7.10296 3.33374 7.10453 3.48443 7.16762C3.63512 7.2307 3.75513 7.35027 3.81875 7.50074C3.8492 7.57706 3.86429 7.65864 3.86317 7.7408C3.86206 7.82296 3.84475 7.9041 3.81224 7.97956C3.77973 8.05503 3.73266 8.12335 3.67372 8.1806C3.61478 8.23786 3.54513 8.28293 3.46875 8.31324L1.875 8.95074V9.61949C1.875 9.95101 2.0067 10.2689 2.24112 10.5034C2.47554 10.7378 2.79348 10.8695 3.125 10.8695H5C5.16576 10.8695 5.32473 10.9353 5.44194 11.0525C5.55915 11.1698 5.625 11.3287 5.625 11.4945C5.625 11.6602 5.55915 11.8192 5.44194 11.9364C5.32473 12.0536 5.16576 12.1195 5 12.1195Z" fill="#858585"/>
<path d="M14.375 6.875C13.7569 6.875 13.1527 6.69172 12.6388 6.34834C12.1249 6.00496 11.7244 5.51691 11.4879 4.94589C11.2514 4.37487 11.1895 3.74654 11.31 3.14034C11.4306 2.53415 11.7283 1.97733 12.1653 1.54029C12.6023 1.10325 13.1592 0.805626 13.7653 0.685047C14.3715 0.564469 14.9999 0.626354 15.5709 0.862878C16.1419 1.0994 16.63 1.49994 16.9733 2.01384C17.3167 2.52775 17.5 3.13193 17.5 3.75C17.5 4.5788 17.1708 5.37366 16.5847 5.95971C15.9987 6.54576 15.2038 6.875 14.375 6.875ZM14.375 1.875C14.0042 1.875 13.6417 1.98497 13.3333 2.191C13.025 2.39702 12.7846 2.68986 12.6427 3.03247C12.5008 3.37508 12.4637 3.75208 12.536 4.1158C12.6084 4.47951 12.787 4.8136 13.0492 5.07583C13.3114 5.33805 13.6455 5.51663 14.0092 5.58897C14.3729 5.66132 14.7499 5.62419 15.0925 5.48228C15.4351 5.34036 15.728 5.10004 15.934 4.7917C16.14 4.48335 16.25 4.12084 16.25 3.75C16.25 3.25272 16.0525 2.77581 15.7008 2.42418C15.3492 2.07255 14.8723 1.875 14.375 1.875Z" fill="#858585"/>
<path d="M16.875 12.1193H15C14.8342 12.1193 14.6753 12.0534 14.5581 11.9362C14.4408 11.819 14.375 11.66 14.375 11.4943C14.375 11.3285 14.4408 11.1695 14.5581 11.0523C14.6753 10.9351 14.8342 10.8693 15 10.8693H16.875C17.2065 10.8693 17.5245 10.7376 17.7589 10.5031C17.9933 10.2687 18.125 9.95078 18.125 9.61926V8.95051L16.5313 8.32551C16.4549 8.2952 16.3852 8.25013 16.3263 8.19288C16.2673 8.13562 16.2203 8.06731 16.1878 7.99184C16.1553 7.91637 16.1379 7.83524 16.1368 7.75307C16.1357 7.67091 16.1508 7.58933 16.1812 7.51301C16.2413 7.35915 16.3598 7.23531 16.5109 7.16856C16.662 7.1018 16.8333 7.09756 16.9875 7.15676L18.9813 7.93801C19.0975 7.98433 19.1972 8.06449 19.2674 8.16813C19.3377 8.27176 19.3751 8.39409 19.375 8.51926V9.61301C19.3758 9.94184 19.3118 10.2676 19.1865 10.5716C19.0612 10.8757 18.8772 11.152 18.645 11.3848C18.4128 11.6176 18.1369 11.8023 17.8332 11.9284C17.5294 12.0544 17.2038 12.1193 16.875 12.1193Z" fill="#858585"/>
</g>
<defs>
<clipPath id="clip0_401_45622">
<rect width="20" height="20" fill="white"/>
</clipPath>
</defs>
</svg>
