<svg width="41" height="40" viewBox="0 0 41 40" fill="none" xmlns="http://www.w3.org/2000/svg">
<circle cx="20.8555" cy="20" r="20" fill="#FFC24D"/>
<mask id="mask0_401_43357" style="mask-type:alpha" maskUnits="userSpaceOnUse" x="0" y="0" width="41" height="40">
<circle cx="20.8555" cy="20" r="20" fill="#FFB154"/>
</mask>
<g mask="url(#mask0_401_43357)">
<rect opacity="0.3" x="0.855469" y="20" width="40" height="20" fill="white"/>
</g>
<path d="M23.3548 28.3327H18.3548C14.1882 28.3327 12.5215 26.666 12.5215 22.4993V17.4993C12.5215 13.3327 14.1882 11.666 18.3548 11.666H23.3548C27.5215 11.666 29.1882 13.3327 29.1882 17.4993V22.4993C29.1882 26.666 27.5215 28.3327 23.3548 28.3327Z" stroke="white" stroke-width="2" stroke-linecap="round" stroke-linejoin="round"/>
<path d="M18.082 21.9422C18.082 23.0172 18.907 23.8839 19.932 23.8839H22.0237C22.9154 23.8839 23.6404 23.1255 23.6404 22.1922C23.6404 21.1755 23.1987 20.8172 22.5404 20.5839L19.182 19.4172C18.5237 19.1839 18.082 18.8255 18.082 17.8089C18.082 16.8755 18.807 16.1172 19.6987 16.1172H21.7904C22.8154 16.1172 23.6404 16.9839 23.6404 18.0589" stroke="white" stroke-width="2" stroke-linecap="round" stroke-linejoin="round"/>
<path d="M20.8555 15V25" stroke="white" stroke-width="2" stroke-linecap="round" stroke-linejoin="round"/>
</svg>
